<?xml version="1.0" standalone="no"?>
<!DOCTYPE svg PUBLIC "-//W3C//DTD SVG 20010904//EN"
 "http://www.w3.org/TR/2001/REC-SVG-20010904/DTD/svg10.dtd">
<svg version="1.0" xmlns="http://www.w3.org/2000/svg"
 width="85.000000pt" height="85.000000pt" viewBox="0 0 85.000000 85.000000"
 preserveAspectRatio="xMidYMid meet">
<metadata>
Created by potrace 1.13, written by Peter Selinger 2001-2015
</metadata>
<g transform="translate(0.000000,85.000000) scale(0.100000,-0.100000)"
fill="#000000" stroke="none">
<path d="M0 425 l0 -425 40 0 c33 0 40 3 40 20 0 36 68 54 105 26 16 -11 22
-11 45 2 34 20 77 9 92 -23 6 -14 15 -25 19 -25 13 0 -2 38 -22 56 -13 12 -19
31 -19 61 0 52 -14 53 -46 6 -18 -27 -22 -29 -39 -17 -31 23 -71 17 -94 -13
-12 -14 -24 -23 -27 -20 -10 9 52 67 71 67 9 0 25 -5 36 -10 16 -9 27 -5 59
22 l40 33 0 258 c0 222 2 257 15 257 8 0 15 7 15 15 0 8 6 15 13 15 17 0 37
47 37 87 l0 33 -190 0 -190 0 0 -425z"/>
<path d="M406 823 c13 -83 16 -93 29 -93 8 0 15 -7 15 -15 0 -8 7 -15 15 -15
13 0 15 -33 15 -238 l0 -239 -76 5 c-63 4 -76 2 -72 -9 3 -9 15 -13 31 -11 15
2 27 -1 27 -7 0 -6 -13 -11 -30 -11 -20 0 -30 -5 -30 -15 0 -10 10 -15 30 -15
l30 0 0 -80 c0 -47 4 -80 10 -80 6 0 10 41 10 103 l0 102 150 0 150 0 0 -102
c0 -62 4 -103 10 -103 6 0 10 43 10 110 l0 110 -65 0 -65 0 0 130 0 130 85 0
85 0 0 -240 0 -240 40 0 40 0 0 425 0 425 -224 0 -225 0 5 -27z m224 -178 c0
-8 5 -15 10 -15 6 0 10 -29 10 -66 0 -56 -2 -65 -16 -60 -9 3 -45 6 -80 6 -36
0 -64 4 -64 10 0 6 30 10 71 10 52 0 70 3 67 13 -3 7 -31 14 -74 17 l-69 4 69
6 c43 3 71 10 74 18 3 9 -15 12 -67 12 l-71 0 0 30 0 30 70 0 c56 0 70 -3 70
-15z m-50 -335 l0 -90 -45 0 -45 0 0 83 c0 46 3 87 7 90 3 4 24 7 45 7 l38 0
0 -90z"/>
</g>
</svg>
